<mxfile host="app.diagrams.net" agent="Mozilla/5.0 (Windows NT 10.0; Win64; x64) AppleWebKit/537.36 (KHTML, like Gecko) Chrome/129.0.0.0 Safari/537.36 Edg/129.0.0.0" version="24.7.17">
  <diagram name="Página-1" id="fdeG-Q4QC_a4tGzY5byT">
    <mxGraphModel dx="1026" dy="503" grid="1" gridSize="10" guides="1" tooltips="1" connect="1" arrows="1" fold="1" page="1" pageScale="1" pageWidth="827" pageHeight="1169" math="0" shadow="0">
      <root>
        <mxCell id="0" />
        <mxCell id="1" parent="0" />
        <mxCell id="Em-zE9eFzpb09-aEOY5m-3" value="" style="edgeStyle=orthogonalEdgeStyle;rounded=0;orthogonalLoop=1;jettySize=auto;html=1;" edge="1" parent="1" source="Em-zE9eFzpb09-aEOY5m-1" target="Em-zE9eFzpb09-aEOY5m-2">
          <mxGeometry relative="1" as="geometry" />
        </mxCell>
        <mxCell id="Em-zE9eFzpb09-aEOY5m-1" value="Inicio" style="ellipse;whiteSpace=wrap;html=1;aspect=fixed;" vertex="1" parent="1">
          <mxGeometry x="374" width="80" height="80" as="geometry" />
        </mxCell>
        <mxCell id="Em-zE9eFzpb09-aEOY5m-5" value="" style="edgeStyle=orthogonalEdgeStyle;rounded=0;orthogonalLoop=1;jettySize=auto;html=1;" edge="1" parent="1" source="Em-zE9eFzpb09-aEOY5m-2" target="Em-zE9eFzpb09-aEOY5m-4">
          <mxGeometry relative="1" as="geometry" />
        </mxCell>
        <mxCell id="Em-zE9eFzpb09-aEOY5m-2" value="Pensar un número" style="rounded=1;whiteSpace=wrap;html=1;" vertex="1" parent="1">
          <mxGeometry x="354" y="100" width="120" height="20" as="geometry" />
        </mxCell>
        <mxCell id="Em-zE9eFzpb09-aEOY5m-7" value="" style="edgeStyle=orthogonalEdgeStyle;rounded=0;orthogonalLoop=1;jettySize=auto;html=1;" edge="1" parent="1" source="Em-zE9eFzpb09-aEOY5m-4" target="Em-zE9eFzpb09-aEOY5m-6">
          <mxGeometry relative="1" as="geometry" />
        </mxCell>
        <mxCell id="Em-zE9eFzpb09-aEOY5m-4" value="" style="ellipse;whiteSpace=wrap;html=1;rounded=1;" vertex="1" parent="1">
          <mxGeometry x="406" y="140" width="16" height="20" as="geometry" />
        </mxCell>
        <mxCell id="Em-zE9eFzpb09-aEOY5m-9" value="" style="edgeStyle=orthogonalEdgeStyle;rounded=0;orthogonalLoop=1;jettySize=auto;html=1;" edge="1" parent="1" source="Em-zE9eFzpb09-aEOY5m-6" target="Em-zE9eFzpb09-aEOY5m-8">
          <mxGeometry relative="1" as="geometry" />
        </mxCell>
        <mxCell id="Em-zE9eFzpb09-aEOY5m-6" value="&quot;Dime un número&quot;" style="rounded=1;whiteSpace=wrap;html=1;" vertex="1" parent="1">
          <mxGeometry x="354" y="180" width="120" height="20" as="geometry" />
        </mxCell>
        <mxCell id="Em-zE9eFzpb09-aEOY5m-12" value="" style="edgeStyle=orthogonalEdgeStyle;rounded=0;orthogonalLoop=1;jettySize=auto;html=1;" edge="1" parent="1" source="Em-zE9eFzpb09-aEOY5m-8" target="Em-zE9eFzpb09-aEOY5m-11">
          <mxGeometry relative="1" as="geometry" />
        </mxCell>
        <mxCell id="Em-zE9eFzpb09-aEOY5m-8" value="Pedir el número" style="rounded=1;whiteSpace=wrap;html=1;" vertex="1" parent="1">
          <mxGeometry x="354" y="220" width="120" height="20" as="geometry" />
        </mxCell>
        <mxCell id="Em-zE9eFzpb09-aEOY5m-14" value="" style="edgeStyle=orthogonalEdgeStyle;rounded=0;orthogonalLoop=1;jettySize=auto;html=1;entryX=0.5;entryY=0;entryDx=0;entryDy=0;" edge="1" parent="1" source="Em-zE9eFzpb09-aEOY5m-11" target="Em-zE9eFzpb09-aEOY5m-13">
          <mxGeometry relative="1" as="geometry" />
        </mxCell>
        <mxCell id="Em-zE9eFzpb09-aEOY5m-17" value="SI" style="edgeLabel;html=1;align=center;verticalAlign=middle;resizable=0;points=[];" vertex="1" connectable="0" parent="Em-zE9eFzpb09-aEOY5m-14">
          <mxGeometry x="-0.0476" y="-1" relative="1" as="geometry">
            <mxPoint as="offset" />
          </mxGeometry>
        </mxCell>
        <mxCell id="Em-zE9eFzpb09-aEOY5m-16" value="" style="edgeStyle=orthogonalEdgeStyle;rounded=0;orthogonalLoop=1;jettySize=auto;html=1;entryX=0.5;entryY=0;entryDx=0;entryDy=0;exitX=1;exitY=0.5;exitDx=0;exitDy=0;" edge="1" parent="1" source="Em-zE9eFzpb09-aEOY5m-11" target="Em-zE9eFzpb09-aEOY5m-15">
          <mxGeometry relative="1" as="geometry" />
        </mxCell>
        <mxCell id="Em-zE9eFzpb09-aEOY5m-18" value="NO" style="edgeLabel;html=1;align=center;verticalAlign=middle;resizable=0;points=[];" vertex="1" connectable="0" parent="Em-zE9eFzpb09-aEOY5m-16">
          <mxGeometry x="-0.2308" y="2" relative="1" as="geometry">
            <mxPoint as="offset" />
          </mxGeometry>
        </mxCell>
        <mxCell id="Em-zE9eFzpb09-aEOY5m-11" value="¿pedido &amp;gt; introducido?" style="rhombus;whiteSpace=wrap;html=1;rounded=1;" vertex="1" parent="1">
          <mxGeometry x="329" y="260" width="170" height="60" as="geometry" />
        </mxCell>
        <mxCell id="Em-zE9eFzpb09-aEOY5m-32" style="edgeStyle=orthogonalEdgeStyle;rounded=0;orthogonalLoop=1;jettySize=auto;html=1;entryX=0.5;entryY=0;entryDx=0;entryDy=0;" edge="1" parent="1" source="Em-zE9eFzpb09-aEOY5m-13" target="Em-zE9eFzpb09-aEOY5m-29">
          <mxGeometry relative="1" as="geometry">
            <Array as="points">
              <mxPoint x="240" y="483" />
            </Array>
          </mxGeometry>
        </mxCell>
        <mxCell id="Em-zE9eFzpb09-aEOY5m-13" value="&quot;ES MAYOR&quot;" style="whiteSpace=wrap;html=1;rounded=1;" vertex="1" parent="1">
          <mxGeometry x="182" y="320" width="120" height="20" as="geometry" />
        </mxCell>
        <mxCell id="Em-zE9eFzpb09-aEOY5m-21" value="" style="edgeStyle=orthogonalEdgeStyle;rounded=0;orthogonalLoop=1;jettySize=auto;html=1;" edge="1" parent="1" source="Em-zE9eFzpb09-aEOY5m-15" target="Em-zE9eFzpb09-aEOY5m-20">
          <mxGeometry relative="1" as="geometry" />
        </mxCell>
        <mxCell id="Em-zE9eFzpb09-aEOY5m-24" value="SI" style="edgeLabel;html=1;align=center;verticalAlign=middle;resizable=0;points=[];" vertex="1" connectable="0" parent="Em-zE9eFzpb09-aEOY5m-21">
          <mxGeometry x="-0.0909" y="-2" relative="1" as="geometry">
            <mxPoint as="offset" />
          </mxGeometry>
        </mxCell>
        <mxCell id="Em-zE9eFzpb09-aEOY5m-23" value="" style="edgeStyle=orthogonalEdgeStyle;rounded=0;orthogonalLoop=1;jettySize=auto;html=1;" edge="1" parent="1" source="Em-zE9eFzpb09-aEOY5m-15" target="Em-zE9eFzpb09-aEOY5m-22">
          <mxGeometry relative="1" as="geometry">
            <Array as="points">
              <mxPoint x="670" y="365" />
            </Array>
          </mxGeometry>
        </mxCell>
        <mxCell id="Em-zE9eFzpb09-aEOY5m-25" value="NO" style="edgeLabel;html=1;align=center;verticalAlign=middle;resizable=0;points=[];" vertex="1" connectable="0" parent="Em-zE9eFzpb09-aEOY5m-23">
          <mxGeometry x="-0.3143" y="2" relative="1" as="geometry">
            <mxPoint as="offset" />
          </mxGeometry>
        </mxCell>
        <mxCell id="Em-zE9eFzpb09-aEOY5m-15" value="¿pedido &amp;lt; introducido?" style="rhombus;whiteSpace=wrap;html=1;rounded=1;" vertex="1" parent="1">
          <mxGeometry x="440" y="330" width="200" height="70" as="geometry" />
        </mxCell>
        <mxCell id="Em-zE9eFzpb09-aEOY5m-30" value="" style="edgeStyle=orthogonalEdgeStyle;rounded=0;orthogonalLoop=1;jettySize=auto;html=1;" edge="1" parent="1" source="Em-zE9eFzpb09-aEOY5m-20" target="Em-zE9eFzpb09-aEOY5m-29">
          <mxGeometry relative="1" as="geometry" />
        </mxCell>
        <mxCell id="Em-zE9eFzpb09-aEOY5m-20" value="&quot;ES MENOR&quot;" style="rounded=1;whiteSpace=wrap;html=1;" vertex="1" parent="1">
          <mxGeometry x="302" y="420" width="120" height="15" as="geometry" />
        </mxCell>
        <mxCell id="Em-zE9eFzpb09-aEOY5m-31" style="edgeStyle=orthogonalEdgeStyle;rounded=0;orthogonalLoop=1;jettySize=auto;html=1;entryX=0.5;entryY=0;entryDx=0;entryDy=0;" edge="1" parent="1" source="Em-zE9eFzpb09-aEOY5m-22" target="Em-zE9eFzpb09-aEOY5m-29">
          <mxGeometry relative="1" as="geometry">
            <Array as="points">
              <mxPoint x="670" y="480" />
              <mxPoint x="362" y="480" />
            </Array>
          </mxGeometry>
        </mxCell>
        <mxCell id="Em-zE9eFzpb09-aEOY5m-22" value="&quot;HAS ACERTADO&quot;" style="whiteSpace=wrap;html=1;rounded=1;" vertex="1" parent="1">
          <mxGeometry x="610" y="420" width="120" height="20" as="geometry" />
        </mxCell>
        <mxCell id="Em-zE9eFzpb09-aEOY5m-33" style="edgeStyle=orthogonalEdgeStyle;rounded=0;orthogonalLoop=1;jettySize=auto;html=1;entryX=0;entryY=0.5;entryDx=0;entryDy=0;" edge="1" parent="1" source="Em-zE9eFzpb09-aEOY5m-29" target="Em-zE9eFzpb09-aEOY5m-4">
          <mxGeometry relative="1" as="geometry">
            <Array as="points">
              <mxPoint x="130" y="545" />
              <mxPoint x="130" y="150" />
            </Array>
          </mxGeometry>
        </mxCell>
        <mxCell id="Em-zE9eFzpb09-aEOY5m-34" value="SI" style="edgeLabel;html=1;align=center;verticalAlign=middle;resizable=0;points=[];" vertex="1" connectable="0" parent="Em-zE9eFzpb09-aEOY5m-33">
          <mxGeometry x="-0.7621" relative="1" as="geometry">
            <mxPoint as="offset" />
          </mxGeometry>
        </mxCell>
        <mxCell id="Em-zE9eFzpb09-aEOY5m-36" value="" style="edgeStyle=orthogonalEdgeStyle;rounded=0;orthogonalLoop=1;jettySize=auto;html=1;" edge="1" parent="1" source="Em-zE9eFzpb09-aEOY5m-29" target="Em-zE9eFzpb09-aEOY5m-35">
          <mxGeometry relative="1" as="geometry" />
        </mxCell>
        <mxCell id="Em-zE9eFzpb09-aEOY5m-29" value="¿pensado != introducido?" style="rhombus;whiteSpace=wrap;html=1;rounded=1;" vertex="1" parent="1">
          <mxGeometry x="266" y="505" width="192" height="80" as="geometry" />
        </mxCell>
        <mxCell id="Em-zE9eFzpb09-aEOY5m-35" value="FIN" style="ellipse;whiteSpace=wrap;html=1;rounded=1;" vertex="1" parent="1">
          <mxGeometry x="322" y="600" width="80" height="80" as="geometry" />
        </mxCell>
      </root>
    </mxGraphModel>
  </diagram>
</mxfile>
